# Blender 4.4.1
# www.blender.org

o Cloner.1
v -14.683233 -4.890698 -7.905740
v -15.018601 -7.335457 -6.919692
v -14.663746 -5.284392 -6.977198
v -16.183485 -4.320651 -5.711266
v -15.459332 -4.616738 -5.112631
v -15.554939 -5.085353 -4.756794
v -14.750799 -5.295534 -5.434700
v -16.230780 -5.435403 -4.423491
v -16.205494 -7.033088 -5.111977
v -16.242603 -6.542713 -4.707246
v -15.522637 -6.641289 -4.960989
v -16.223534 -4.911160 -4.619565
v -14.917812 -6.724701 -5.749634
v -16.095003 -8.401870 -6.810091
v -16.019487 -8.386524 -6.818909
v -15.473258 -4.452575 -5.818864
v -14.769442 -5.915010 -5.312739
v -16.154507 -4.585235 -6.803144
v -14.647567 -5.915010 -8.631205
v -15.372003 -4.750207 -6.894506
v -14.462777 -6.208462 -7.000662
v -14.751899 -4.890698 -6.036088
v -15.543828 -5.778328 -4.566221
v -15.373552 -5.778327 -9.202548
v -16.103188 -4.320651 -7.897631
v -15.328637 -4.616738 -8.671247
v -15.398818 -5.085353 -9.007727
v -14.637760 -5.295534 -8.512566
v -16.055893 -5.435403 -9.185406
v -16.081177 -7.033088 -8.496920
v -16.088751 -6.542713 -8.896434
v -15.381301 -6.641289 -8.809349
v -16.063047 -4.911159 -8.989343
v -14.829445 -6.724700 -8.155752
v -15.394781 -4.452574 -7.955666
vn 0.2556 -0.7438 0.6176
vn 0.5495 0.8161 0.1789
vn 0.5467 -0.6783 0.4910
vn 0.6536 0.3686 0.6610
vn -0.9987 -0.0051 -0.0505
vn 0.7089 -0.6485 0.2774
vn 0.2563 -0.3969 0.8814
vn 0.6907 -0.4373 0.5759
vn 0.1397 0.9576 -0.2518
vn 0.7238 0.5731 0.3844
vn 0.9384 -0.3055 -0.1613
vn 0.3176 0.2562 0.9130
vn -0.9978 -0.0655 -0.0121
vn 0.1754 0.9579 -0.2275
vn 0.5582 0.7827 -0.2752
vn 0.9317 -0.2892 0.2196
vn 0.0767 -0.2483 0.9656
vn -0.0327 0.8796 0.4746
vn 0.2100 0.9532 0.2174
vn 0.9886 0.1483 -0.0249
vn 0.1850 -0.6172 0.7648
vn 0.6585 0.1263 0.7419
vn -0.9941 0.0368 -0.1023
vn 0.0660 0.3503 -0.9343
vn 0.5364 -0.3539 -0.7662
vn 0.6981 0.2003 0.6875
vn 0.8912 -0.4290 0.1472
vn 0.4656 0.8633 -0.1950
vn 0.9772 0.2124 0.0027
vn 0.6310 -0.3099 0.7112
vn -0.9996 -0.0153 -0.0235
vn -0.9996 -0.0155 -0.0228
vn 0.9847 0.1456 0.0962
vn 0.2722 0.3338 0.9025
vn 0.3016 0.5368 0.7880
vn 0.1259 0.5661 -0.8147
vn -0.9991 -0.0103 -0.0422
vn 0.1170 -0.7709 -0.6261
vn 0.1171 -0.7709 -0.6261
vn 0.5262 0.8382 -0.1436
vn 0.4711 -0.7326 -0.4913
vn 0.5736 0.4193 -0.7036
vn -0.9997 -0.0058 -0.0240
vn -0.9997 -0.0051 -0.0228
vn -0.9997 -0.0060 -0.0242
vn 0.6934 -0.6825 -0.2311
vn 0.0541 -0.4144 -0.9085
vn 0.6328 -0.4928 -0.5972
vn 0.1974 0.9450 0.2608
vn 0.6942 0.6217 -0.3628
vn -0.9995 -0.0103 -0.0312
vn 0.1131 0.2727 -0.9554
vn -0.9960 -0.0650 -0.0609
vn 0.2269 0.9442 0.2389
vn 0.5962 0.7436 0.3028
vn 0.9752 0.2103 0.0687
vn -0.1475 -0.2456 -0.9581
vn -0.1424 0.8684 -0.4750
vn 0.1628 0.9649 -0.2063
vn -0.9986 -0.0155 -0.0506
vn 0.0074 -0.6315 -0.7753
vn 0.5675 0.1462 -0.8103
vn -0.9988 0.0376 0.0305
vn 0.9937 0.0056 -0.1116
vn 0.9840 0.0054 0.1778
vn 0.6282 0.2317 -0.7428
vn 0.8913 -0.4456 -0.0838
vn 0.4995 0.8368 0.2240
vt 0.500000 0.000000
vt 0.500000 0.003760
vt 0.095923 0.431386
vt 0.144582 0.335386
vt 0.303687 0.860324
vt 0.275636 0.967676
vt 0.126346 0.927451
vt 0.274314 0.410948
vt 0.176825 0.761129
vt 0.053653 0.812629
vt 0.000000 0.726858
vt 0.041174 0.855311
vt 0.500000 0.394250
vt 0.013187 0.642833
vt 0.060136 0.455540
vt 0.151562 0.609343
vt 0.500000 0.894748
vt 0.270432 1.000000
vt 0.500000 0.532204
vt 0.725686 0.410948
vt 0.848438 0.609343
vt 0.500000 0.935170
vt 0.500000 0.626900
vt 0.823175 0.761129
vt 0.696313 0.860324
vt 1.000000 0.726858
vt 0.958826 0.855311
vt 0.946347 0.812629
vt 0.904077 0.431386
vt 0.986813 0.642833
vt 0.873654 0.927451
vt 0.855418 0.335386
vt 0.724364 0.967676
vt 0.939864 0.455540
vt 0.729568 1.000000
s 1

f 14/1/1 15/2/1 11/3/1 9/4/1
f 22/5/2 16/6/2 5/7/2
f 11/3/3 15/2/3 13/8/3
f 7/9/4 5/7/4 6/10/4
f 8/11/5 12/12/5 14/1/5
f 15/2/6 2/13/6 13/8/6
f 11/3/7 23/14/7 10/15/7
f 13/8/8 17/16/8 11/3/8
f 16/6/9 20/17/9 4/18/9
f 7/9/10 22/5/10 5/7/10
f 21/19/11 34/20/11 19/21/11
f 8/11/12 23/14/12 6/10/12
f 9/4/13 10/15/13 14/1/13
f 18/22/14 4/18/14 20/17/14
f 22/5/15 3/23/15 20/17/15
f 17/16/16 13/8/16 21/19/16
f 23/14/17 8/11/17 10/15/17
f 5/7/18 4/18/18 12/12/18
f 5/7/19 16/6/19 4/18/19
f 21/19/20 28/24/20 1/25/20
f 11/3/21 10/15/21 9/4/21
f 7/9/22 6/10/22 17/16/22
f 10/15/23 8/11/23 14/1/23
f 29/26/24 33/27/24 27/28/24
f 32/29/25 24/30/25 19/21/25
f 23/14/26 17/16/26 6/10/26
f 21/19/27 13/8/27 2/13/27
f 22/5/28 20/17/28 16/6/28
f 21/19/29 3/23/29 22/5/29
f 23/14/30 11/3/30 17/16/30
f 4/18/31 18/22/32 14/1/31
f 21/19/33 22/5/33 7/9/33
f 12/12/34 8/11/34 6/10/34
f 6/10/35 5/7/35 12/12/35
f 26/31/36 27/28/36 33/27/36
f 12/12/37 4/18/31 14/1/31
f 32/29/38 15/2/39 14/1/38 30/32/38
f 35/33/40 1/25/40 26/31/40
f 15/2/41 32/29/41 34/20/41
f 26/31/42 28/24/42 27/28/42
f 33/27/43 29/26/44 14/1/45
f 2/13/46 15/2/46 34/20/46
f 24/30/47 32/29/47 31/34/47
f 19/21/48 34/20/48 32/29/48
f 20/17/49 35/33/49 25/35/49
f 1/25/50 28/24/50 26/31/50
f 25/35/51 33/27/43 14/1/45
f 24/30/52 29/26/52 27/28/52
f 31/34/53 30/32/53 14/1/53
f 25/35/54 18/22/54 20/17/54
f 3/23/55 1/25/55 20/17/55
f 1/25/56 3/23/56 21/19/56
f 29/26/57 24/30/57 31/34/57
f 25/35/58 26/31/58 33/27/58
f 35/33/59 26/31/59 25/35/59
f 18/22/60 25/35/60 14/1/60
f 31/34/61 32/29/61 30/32/61
f 27/28/62 28/24/62 19/21/62
f 29/26/63 31/34/63 14/1/63
f 21/19/64 19/21/64 28/24/64
f 21/19/65 7/9/65 17/16/65
f 19/21/66 24/30/66 27/28/66
f 21/19/67 2/13/67 34/20/67
f 20/17/68 1/25/68 35/33/68
